<?xml version="1.0" ?>
<!DOCTYPE svg  PUBLIC '-//W3C//DTD SVG 1.1//EN'  'http://www.w3.org/Graphics/SVG/1.1/DTD/svg11.dtd'>
<!-- Uploaded to: SVG Repo, www.svgrepo.com, Generator: SVG Repo Mixer Tools -->
<svg width="800px" height="800px" viewBox="0 0 32 32" enable-background="new 0 0 32 32" version="1.1" xml:space="preserve" xmlns="http://www.w3.org/2000/svg" xmlns:xlink="http://www.w3.org/1999/xlink">
<g id="Layer_2"/>
<g id="Layer_3"/>
<g id="Layer_4"/>
<g id="Layer_5"/>
<g id="Layer_6"/>
<g id="Layer_7"/>
<g id="Layer_8"/>
<g id="Layer_9"/>
<g id="Layer_10"/>
<g id="Layer_11"/>
<g id="Layer_12"/>
<g id="Layer_13"/>
<g id="Layer_14"/>
<g id="Layer_15"/>
<g id="Layer_16"/>
<g id="Layer_17"/>
<g id="Layer_18"/>
<g id="Layer_19"/>
<g id="Layer_20">
<g>
<path d="M16,25c-0.5522,0-1-0.4478-1-1v-4c0-0.5522,0.4478-1,1-1s1,0.4478,1,1v4C17,24.5522,16.5522,25,16,25z" fill="#00ACBA"/>
</g>
<g>
<path d="M26,28h-7c-0.5522,0-1-0.4478-1-1s0.4478-1,1-1h7c0.5522,0,1,0.4478,1,1S26.5522,28,26,28z" fill="#00ACBA"/>
</g>
<g>
<path d="M13,28H6c-0.5522,0-1-0.4478-1-1s0.4478-1,1-1h7c0.5522,0,1,0.4478,1,1S13.5522,28,13,28z" fill="#00ACBA"/>
</g>
<g>
<path d="M24,9H8C6.3457,9,5,7.6543,5,6V4c0-1.6543,1.3457-3,3-3h16c1.6543,0,3,1.3457,3,3v2    C27,7.6543,25.6543,9,24,9z M8,3C7.4487,3,7,3.4487,7,4v2c0,0.5513,0.4487,1,1,1h16c0.5513,0,1-0.4487,1-1V4    c0-0.5513-0.4487-1-1-1H8z" fill="#0181B0"/>
</g>
<g>
<path d="M24,15H8c-1.6543,0-3-1.3457-3-3v-2c0-1.6543,1.3457-3,3-3h16c1.6543,0,3,1.3457,3,3v2    C27,13.6543,25.6543,15,24,15z M8,9c-0.5513,0-1,0.4487-1,1v2c0,0.5513,0.4487,1,1,1h16c0.5513,0,1-0.4487,1-1v-2    c0-0.5513-0.4487-1-1-1H8z" fill="#0181B0"/>
</g>
<g>
<path d="M24,21H8c-1.6543,0-3-1.3457-3-3v-2c0-1.6543,1.3457-3,3-3h16c1.6543,0,3,1.3457,3,3v2    C27,19.6543,25.6543,21,24,21z M8,15c-0.5513,0-1,0.4487-1,1v2c0,0.5513,0.4487,1,1,1h16c0.5513,0,1-0.4487,1-1v-2    c0-0.5513-0.4487-1-1-1H8z" fill="#0181B0"/>
</g>
<g>
<path d="M17,6h-7C9.4478,6,9,5.5522,9,5s0.4478-1,1-1h7c0.5522,0,1,0.4478,1,1S17.5522,6,17,6z" fill="#00ACBA"/>
</g>
<g>
<path d="M22,6h-2c-0.5522,0-1-0.4478-1-1s0.4478-1,1-1h2c0.5522,0,1,0.4478,1,1S22.5522,6,22,6z" fill="#F5D803"/>
</g>
<g>
<path d="M17,12h-7c-0.5522,0-1-0.4478-1-1s0.4478-1,1-1h7c0.5522,0,1,0.4478,1,1S17.5522,12,17,12z" fill="#00ACBA"/>
</g>
<g>
<path d="M22,12h-2c-0.5522,0-1-0.4478-1-1s0.4478-1,1-1h2c0.5522,0,1,0.4478,1,1S22.5522,12,22,12z" fill="#F5D803"/>
</g>
<g>
<path d="M17,18h-7c-0.5522,0-1-0.4478-1-1s0.4478-1,1-1h7c0.5522,0,1,0.4478,1,1S17.5522,18,17,18z" fill="#00ACBA"/>
</g>
<g>
<path d="M22,18h-2c-0.5522,0-1-0.4478-1-1s0.4478-1,1-1h2c0.5522,0,1,0.4478,1,1S22.5522,18,22,18z" fill="#F5D803"/>
</g>
<g>
<path d="M16,31c-2.2056,0-4-1.7944-4-4s1.7944-4,4-4s4,1.7944,4,4S18.2056,31,16,31z M16,25c-1.103,0-2,0.897-2,2    s0.897,2,2,2s2-0.897,2-2S17.103,25,16,25z" fill="#0181B0"/>
</g>
<g>
<path d="M4,30c-1.6543,0-3-1.3457-3-3s1.3457-3,3-3s3,1.3457,3,3S5.6543,30,4,30z M4,26c-0.5513,0-1,0.4487-1,1    s0.4487,1,1,1s1-0.4487,1-1S4.5513,26,4,26z" fill="#F5D803"/>
</g>
<g>
<path d="M28,30c-1.6543,0-3-1.3457-3-3s1.3457-3,3-3s3,1.3457,3,3S29.6543,30,28,30z M28,26    c-0.5513,0-1,0.4487-1,1s0.4487,1,1,1s1-0.4487,1-1S28.5513,26,28,26z" fill="#F5D803"/>
</g>
</g>
<g id="Layer_21"/>
<g id="Layer_22"/>
<g id="Layer_23"/>
<g id="Layer_24"/>
<g id="Layer_25"/>
<g id="Layer_26"/>
</svg>